<?xml version="1.0" encoding="UTF-8"?>
<!DOCTYPE svg PUBLIC "-//W3C//DTD SVG 1.1//EN" "http://www.w3.org/Graphics/SVG/1.1/DTD/svg11.dtd">
<!-- Creator: CorelDRAW 2019 (64-Bit) -->
<svg xmlns="http://www.w3.org/2000/svg" xml:space="preserve" width="220.23mm" height="51.349mm" version="1.1" style="shape-rendering:geometricPrecision; text-rendering:geometricPrecision; image-rendering:optimizeQuality; fill-rule:evenodd; clip-rule:evenodd"
viewBox="0 0 21358.1 4979.87"
 xmlns:xlink="http://www.w3.org/1999/xlink"
 xmlns:xodm="http://www.corel.com/coreldraw/odm/2003">
 <defs>
  <style type="text/css">
   <![CDATA[
    .fil0 {fill:#FEFEFE}
    .fil4 {fill:#2B2A29}
    .fil2 {fill:#0C5A80;fill-rule:nonzero}
    .fil1 {fill:#77A3F6;fill-rule:nonzero}
    .fil3 {fill:url(#id0)}
   ]]>
  </style>
  <linearGradient id="id0" gradientUnits="userSpaceOnUse" x1="6786.16" y1="2489.94" x2="10240.68" y2="2489.89">
   <stop offset="0" style="stop-opacity:1; stop-color:#A8FAC6"/>
   <stop offset="1" style="stop-opacity:1; stop-color:#76A1F7"/>
  </linearGradient>
 </defs>
 <g id="Layer_x0020_1">
  <metadata id="CorelCorpID_0Corel-Layer"/>
  <rect class="fil0" x="0" y="0" width="21358.1" height="4979.87"/>
  <path class="fil1" d="M648.04 2492.06c0,884.14 623.1,1498.82 1439.87,1498.82 656.78,0 1145.16,-328.4 1355.68,-884.14l-345.24 0c-164.19,383.12 -509.42,627.31 -1010.43,627.31 -644.16,0 -1136.74,-475.75 -1136.74,-1241.99 0,-770.46 492.59,-1246.2 1136.74,-1246.2 501.01,0 846.25,244.19 1010.43,635.73l345.24 0c-210.52,-564.16 -698.89,-892.55 -1355.68,-892.55 -816.77,0 -1439.87,618.89 -1439.87,1503.03z"/>
  <polygon id="1" class="fil1" points="15138.04,1018.5 13601.33,1018.5 13601.33,3965.61 15138.04,3965.61 15138.04,3721.43 13896.04,3721.43 13896.04,2605.73 15011.73,2605.73 15011.73,2361.54 13896.04,2361.54 13896.04,1262.69 15138.04,1262.69 "/>
  <polygon id="2" class="fil1" points="20575.24,1018.5 19038.53,1018.5 19038.53,3965.61 20575.24,3965.61 20575.24,3721.43 19333.24,3721.43 19333.24,2605.73 20448.93,2605.73 20448.93,2361.54 19333.24,2361.54 19333.24,1262.69 20575.24,1262.69 "/>
  <path id="3" class="fil2" d="M6084.3 1877.37c0,357.86 -214.72,618.89 -694.67,618.89l-593.64 0 0 -1225.16 589.43 0c496.79,0 698.88,235.77 698.88,606.27zm-1583.02 -854.66l0 2942.9 294.71 0 0 -1229.37 543.11 0 728.36 1229.37 353.65 0 -757.83 -1250.42c496.79,-92.62 724.15,-433.64 724.15,-837.82 0,-484.17 -319.97,-854.66 -1002.02,-854.66l-884.14 0z"/>
  <path id="4" class="fil2" d="M11049.03 2458.38l0 -1187.27 593.64 0c496.79,0 690.46,218.93 690.46,597.85 0,362.07 -193.67,589.42 -690.46,589.42l-593.64 0zm1587.24 -589.42c0,-484.17 -311.55,-846.25 -993.6,-846.25l-888.34 0 0 2942.9 294.71 0 0 -1254.63 593.64 0c690.46,0 993.6,-366.28 993.6,-842.03z"/>
  <polygon id="5" class="fil2" points="16898.83,2820.45 16898.83,3965.61 17193.54,3965.61 17193.54,2820.45 18136.62,1022.71 17808.22,1022.71 17046.19,2551 16279.93,1022.71 15947.34,1022.71 "/>
  <circle class="fil3" cx="8513.42" cy="2489.94" r="1727.26"/>
  <circle class="fil4" cx="8513.42" cy="2489.94" r="873.91"/>
  <path class="fil0" d="M9104.45 2098.33c18.66,-16.31 24.78,-29.74 3.03,-37.05 -380.6,-127.85 -687.7,-108.32 -917.01,52.39 -243.65,170.75 -338.4,457.98 -255.6,888.63 61.1,-496.25 310.4,-940.39 954.67,-885.89 -464.97,-11.5 -724.36,243.83 -851.48,642.53 106.79,80.72 423.22,101.79 539.65,32.78 248,-147 267.37,-466.57 526.75,-693.38z"/>
 </g>
</svg>
