<?xml version="1.0" encoding="UTF-8"?>
<!DOCTYPE svg PUBLIC "-//W3C//DTD SVG 1.1//EN" "http://www.w3.org/Graphics/SVG/1.1/DTD/svg11.dtd">
<!-- Creator: CorelDRAW 2019 (64-Bit) -->
<svg xmlns="http://www.w3.org/2000/svg" xml:space="preserve" width="67.24mm" height="67.2401mm" version="1.1" style="shape-rendering:geometricPrecision; text-rendering:geometricPrecision; image-rendering:optimizeQuality; fill-rule:evenodd; clip-rule:evenodd"
viewBox="0 0 1967.1 1967.1"
 xmlns:xlink="http://www.w3.org/1999/xlink"
 xmlns:xodm="http://www.corel.com/coreldraw/odm/2003">
 <defs>
  <style type="text/css">
   <![CDATA[
    .str0 {stroke:#2B2A29;stroke-width:5.85;stroke-miterlimit:22.9256}
    .fil0 {fill:none}
    .fil3 {fill:#FEFEFE}
    .fil2 {fill:#2B2A29}
    .fil4 {fill:#2B2A29;fill-rule:nonzero}
    .fil1 {fill:url(#id0)}
   ]]>
  </style>
  <linearGradient id="id0" gradientUnits="userSpaceOnUse" x1="305.04" y1="784.13" x2="1662.06" y2="784.11">
   <stop offset="0" style="stop-opacity:1; stop-color:#A8FAC6"/>
   <stop offset="1" style="stop-opacity:1; stop-color:#76A1F7"/>
  </linearGradient>
 </defs>
 <g id="Layer_x0020_1">
  <metadata id="CorelCorpID_0Corel-Layer"/>
  <rect class="fil0" x="-0" y="0" width="1967.1" height="1967.1"/>
  <circle class="fil1" cx="983.55" cy="784.13" r="678.51"/>
  <circle class="fil2 str0" cx="983.55" cy="784.13" r="343.29"/>
  <path class="fil3" d="M1215.72 630.29c7.33,-6.41 9.73,-11.68 1.19,-14.55 -149.51,-50.22 -270.15,-42.55 -360.23,20.58 -95.71,67.08 -132.93,179.91 -100.41,349.08 24,-194.94 121.93,-369.41 375.02,-348 -182.65,-4.52 -284.55,95.78 -334.48,252.4 41.95,31.71 166.25,39.99 211.98,12.88 97.42,-57.75 105.03,-183.28 206.92,-272.38z"/>
  <path class="fil4" d="M310.01 1780.94c0,58.36 41.13,98.93 95.04,98.93 43.35,0 75.59,-21.67 89.48,-58.36l-22.79 0c-10.84,25.29 -33.63,41.41 -66.7,41.41 -42.52,0 -75.03,-31.4 -75.03,-81.98 0,-50.85 32.51,-82.26 75.03,-82.26 33.07,0 55.86,16.12 66.7,41.96l22.79 0c-13.9,-37.24 -46.13,-58.91 -89.48,-58.91 -53.91,0 -95.04,40.85 -95.04,99.21z"/>
  <path id="1" class="fil4" d="M668.85 1740.37c0,23.62 -14.17,40.85 -45.85,40.85l-39.18 0 0 -80.87 38.91 0c32.79,0 46.13,15.56 46.13,40.02zm-104.49 -56.41l0 194.25 19.45 0 0 -81.15 35.85 0 48.08 81.15 23.34 0 -50.02 -82.54c32.79,-6.11 47.8,-28.62 47.8,-55.3 0,-31.96 -21.12,-56.41 -66.14,-56.41l-58.36 0z"/>
  <path id="2" class="fil4" d="M942.08 1780.94c0,-58.08 -41.41,-99.21 -96.16,-99.21 -54.47,0 -96.15,41.13 -96.15,99.21 0,58.36 41.69,99.21 96.15,99.21 54.75,0 96.16,-40.85 96.16,-99.21zm-172.3 0c0,-50.85 33.07,-81.98 76.14,-81.98 43.07,0 76.14,31.12 76.14,81.98 0,50.86 -33.07,82.26 -76.14,82.26 -43.07,0 -76.14,-31.4 -76.14,-82.26z"/>
  <path id="3" class="fil4" d="M1028.29 1778.72l0 -78.37 39.18 0c32.79,0 45.58,14.45 45.58,39.46 0,23.9 -12.78,38.91 -45.58,38.91l-39.18 0zm104.77 -38.91c0,-31.96 -20.56,-55.86 -65.58,-55.86l-58.64 0 0 194.25 19.45 0 0 -82.81 39.18 0c45.58,0 65.58,-24.18 65.58,-55.58z"/>
  <polygon id="4" class="fil4" points="1298.2,1683.68 1196.76,1683.68 1196.76,1878.21 1298.2,1878.21 1298.2,1862.09 1216.22,1862.09 1216.22,1788.44 1289.86,1788.44 1289.86,1772.33 1216.22,1772.33 1216.22,1699.79 1298.2,1699.79 "/>
  <polygon id="5" class="fil4" points="1414.42,1802.62 1414.42,1878.21 1433.87,1878.21 1433.87,1802.62 1496.12,1683.95 1474.45,1683.95 1424.14,1784.83 1373.57,1683.95 1351.61,1683.95 "/>
  <polygon id="6" class="fil4" points="1657.09,1683.68 1555.65,1683.68 1555.65,1878.21 1657.09,1878.21 1657.09,1862.09 1575.11,1862.09 1575.11,1788.44 1648.75,1788.44 1648.75,1772.33 1575.11,1772.33 1575.11,1699.79 1657.09,1699.79 "/>
 </g>
</svg>
