<?xml version="1.0" encoding="UTF-8"?>
<!DOCTYPE svg PUBLIC "-//W3C//DTD SVG 1.1//EN" "http://www.w3.org/Graphics/SVG/1.1/DTD/svg11.dtd">
<!-- Creator: CorelDRAW 2019 (64-Bit) -->
<svg xmlns="http://www.w3.org/2000/svg" xml:space="preserve" width="210mm" height="297mm" version="1.1" style="shape-rendering:geometricPrecision; text-rendering:geometricPrecision; image-rendering:optimizeQuality; fill-rule:evenodd; clip-rule:evenodd"
viewBox="0 0 20985.75 29679.85"
 xmlns:xlink="http://www.w3.org/1999/xlink"
 xmlns:xodm="http://www.corel.com/coreldraw/odm/2003">
 <defs>
  <style type="text/css">
   <![CDATA[
    .fil0 {fill:none}
    .fil1 {fill:#2873B9;fill-rule:nonzero}
    .fil2 {fill:#6EA621;fill-rule:nonzero}
   ]]>
  </style>
 </defs>
 <g id="Layer_x0020_1">
  <metadata id="CorelCorpID_0Corel-Layer"/>
  <rect class="fil0" width="20985.75" height="29679.85"/>
  <rect class="fil0" width="20985.75" height="29679.85"/>
  <g id="_1661721021776">
   <path class="fil1" d="M4367.1 10283.59c44.12,-65.97 89.06,-130.94 134.77,-194.96l0 -2010.44c-244.37,-62.64 -425.49,-284.66 -425.49,-548.25 0,-311.96 253.83,-565.83 565.83,-565.83 312.03,0 565.83,253.78 565.83,565.83 0,263.49 -181.07,485.69 -425.49,548.25l0 1641.98c260.75,-321.08 543.58,-613.81 847.16,-876.83l0 -4758.43c-244.4,-62.6 -425.49,-284.68 -425.49,-548.23 0,-311.98 253.76,-565.84 565.83,-565.84 312.04,0 565.82,253.8 565.82,565.84 0,263.47 -181.04,485.69 -425.47,548.23l0 4528.32c181.96,-141.07 370.66,-272.16 565.85,-392.98 249.2,-154.05 511.94,-288.88 785.83,-404.48l0 -2346.84 4041.06 0c1451.83,0 2456.04,300.35 3011.87,901.05 200.23,216.71 364.46,449.05 492.55,697 331.55,-136.31 638.64,-292.52 919.88,-457.45l-2508.1 -2286.49 -4397.98 0c-62.53,244.4 -284.73,425.47 -548.22,425.47 -311.97,0 -565.83,-253.8 -565.83,-565.83 0,-312.03 253.86,-565.83 565.83,-565.83 263.49,0 485.69,181.09 548.22,425.49l4511.75 0 2641.54 2415.92c314.76,-200.65 592.27,-408.97 830.08,-606.49l-1350.07 -1227.41c-210.74,138.62 -496.7,123.92 -691.7,-53.86 -230.38,-210.09 -248.34,-568.49 -38.01,-799.24 210.12,-230.39 568.42,-248.45 799.24,-38.02 194.68,177.51 237.73,460.8 119.51,683.58l1375.48 1250.62c506.99,-450.95 782.24,-806.98 789.7,-816.67l10.56 -14.17c-160.67,-213.39 -337.03,-421.03 -529.99,-622.06 -1156.73,-1206.86 -2932.02,-1810.25 -5325.4,-1810.25l-8397.43 0 0 9388.17c228.66,-548.82 495.63,-1053.23 800.54,-1508.88zm10985.75 -5941.4c-103.82,117.69 -283.55,121.5 -399.65,19 -114.46,-101.04 -123.75,-288.31 -19,-399.6 103.84,-117.66 283.55,-121.48 399.64,-19.02 114.46,101.04 123.78,288.29 19.01,399.62zm-6796.83 -159.52c0,155.85 -126.97,282.91 -282.91,282.91 -155.94,0 -282.92,-127.05 -282.92,-282.91 0,-155.85 126.97,-282.91 282.92,-282.91 155.93,0 282.91,127.05 282.91,282.91zm-2785.98 -363.1c-155.87,0 -282.94,-126.95 -282.94,-282.9 0,-155.95 127.06,-282.91 282.94,-282.91 155.85,0 282.91,126.95 282.91,282.91 0,155.94 -127.05,282.9 -282.91,282.9zm-1127.83 3993.26c-155.85,0 -282.91,-126.94 -282.91,-282.89 0,-155.93 127.05,-282.89 282.91,-282.89 155.85,0 282.92,126.95 282.92,282.89 0,155.94 -127.06,282.89 -282.92,282.89z"/>
   <path class="fil2" d="M18444.79 5333.17c0,0 -2838.6,3744.19 -7431.54,2903.32 -1414.31,-258.82 -2894.37,-93.9 -4116.85,662.71 -1294.86,801.45 -2612.38,2329.9 -3204.57,5231.47 0,0 3383.76,-4466.45 9271.52,-4195.88 0,0 -9948.18,541.41 -10624.89,11098.59 0,0 947.32,-4669.47 2909.93,-6158.24 0,0 2088.47,828.11 5083.53,803.42 4661.45,-38.4 8468.87,-3877.26 8310.57,-8536.04 -18.96,-566.99 -82.15,-1169.52 -197.7,-1809.35z"/>
   <polygon class="fil1" points="3566.59,26029.82 7262.05,21885.26 7262.05,21061.18 3566.59,25205.57 "/>
   <polygon class="fil1" points="3566.59,24805.79 7262.05,20661.18 7262.05,19837.14 3566.59,23981.5 "/>
   <polygon class="fil1" points="3566.59,26429.62 3566.59,27275.54 7262.05,23096.96 7262.05,22285.26 "/>
   <path class="fil1" d="M6570.49 16083.05c-479.81,-106.45 -866.27,-215.9 -1140.96,-302.06 -572.66,591.71 -1127.49,1616.64 -1620.08,2999.47 -89.77,252.01 -170.69,497.5 -242.87,729.3l0 4071.94 3695.46 -4144.58 0 -2434.39c2494.83,252.47 5360.88,-1003.87 5360.88,-1003.87 -2646.71,569.55 -4811.45,335.68 -6052.44,84.17z"/>
  </g>
 </g>
</svg>
