<?xml version="1.0" encoding="UTF-8"?>
<!DOCTYPE svg PUBLIC "-//W3C//DTD SVG 1.1//EN" "http://www.w3.org/Graphics/SVG/1.1/DTD/svg11.dtd">
<!-- Creator: CorelDRAW 2019 (64-Bit) -->
<svg xmlns="http://www.w3.org/2000/svg" xml:space="preserve" width="254.015mm" height="82.8998mm" version="1.1" style="shape-rendering:geometricPrecision; text-rendering:geometricPrecision; image-rendering:optimizeQuality; fill-rule:evenodd; clip-rule:evenodd"
viewBox="0 0 25400.4 8289.63"
 xmlns:xlink="http://www.w3.org/1999/xlink"
 xmlns:xodm="http://www.corel.com/coreldraw/odm/2003">
 <defs>
  <style type="text/css">
   <![CDATA[
    .fil0 {fill:none}
    .fil1 {fill:#2873B9;fill-rule:nonzero}
    .fil2 {fill:#6EA621;fill-rule:nonzero}
   ]]>
  </style>
 </defs>
 <g id="Layer_x0020_1">
  <metadata id="CorelCorpID_0Corel-Layer"/>
  <rect class="fil0" x="0" y="-0" width="25400.4" height="8289.63"/>
  <g id="_2330510088912">
   <path class="fil1" d="M21422.87 4317.83c7.25,-10.84 14.64,-21.52 22.15,-32.04l0 -330.47c-40.17,-10.3 -69.94,-46.79 -69.94,-90.12 0,-51.29 41.72,-93.02 93.01,-93.02 51.29,0 93.01,41.72 93.01,93.02 0,43.31 -29.76,79.83 -69.94,90.12l0 269.9c42.86,-52.78 89.35,-100.9 139.25,-144.13l0 -782.17c-40.18,-10.29 -69.95,-46.79 -69.95,-90.11 0,-51.29 41.72,-93.02 93.01,-93.02 51.3,0 93.01,41.72 93.01,93.02 0,43.31 -29.76,79.83 -69.94,90.11l0 744.35c29.92,-23.19 60.93,-44.74 93.02,-64.6 40.96,-25.33 84.15,-47.49 129.16,-66.49l0 -385.76 664.25 0c238.64,0 403.71,49.37 495.08,148.11 32.91,35.62 59.91,73.81 80.96,114.57 54.5,-22.41 104.98,-48.08 151.2,-75.2l-412.26 -375.83 -722.92 0c-10.28,40.17 -46.8,69.94 -90.12,69.94 -51.28,0 -93.01,-41.72 -93.01,-93.01 0,-51.29 41.73,-93.01 93.01,-93.01 43.32,0 79.84,29.76 90.12,69.94l741.62 0 434.2 397.11c51.74,-32.98 97.35,-67.23 136.44,-99.7l-221.92 -201.75c-34.64,22.79 -81.65,20.37 -113.7,-8.85 -37.87,-34.54 -40.83,-93.45 -6.25,-131.37 34.54,-37.87 93.44,-40.84 131.37,-6.25 32,29.18 39.08,75.74 19.64,112.36l226.1 205.57c83.33,-74.12 128.57,-132.64 129.8,-134.23l1.73 -2.33c-26.41,-35.08 -55.4,-69.21 -87.12,-102.25 -190.13,-198.38 -481.95,-297.57 -875.35,-297.57l-1380.33 0 0 1543.19c37.59,-90.22 81.48,-173.13 131.59,-248.03zm1805.77 -976.61c-17.06,19.34 -46.61,19.97 -65.69,3.12 -18.82,-16.61 -20.34,-47.39 -3.13,-65.69 17.07,-19.34 46.61,-19.96 65.7,-3.12 18.81,16.61 20.34,47.39 3.12,65.69zm-1117.22 -26.22c0,25.62 -20.87,46.5 -46.51,46.5 -25.63,0 -46.5,-20.88 -46.5,-46.5 0,-25.62 20.87,-46.51 46.5,-46.51 25.64,0 46.51,20.89 46.51,46.51zm-457.95 -59.69c-25.62,0 -46.51,-20.87 -46.51,-46.5 0,-25.64 20.89,-46.51 46.51,-46.51 25.62,0 46.51,20.87 46.51,46.51 0,25.63 -20.89,46.5 -46.51,46.5zm-185.38 656.39c-25.62,0 -46.51,-20.87 -46.51,-46.5 0,-25.64 20.89,-46.51 46.51,-46.51 25.62,0 46.5,20.87 46.5,46.51 0,25.63 -20.88,46.5 -46.5,46.5z"/>
   <path class="fil2" d="M23736.88 3504.11c0,0 -466.6,615.44 -1221.56,477.23 -232.48,-42.55 -475.76,-15.44 -676.71,108.94 -212.84,131.73 -429.4,382.97 -526.75,859.91 0,0 556.21,-734.17 1524.01,-689.69 0,0 -1635.23,89 -1746.47,1824.32 0,0 155.72,-767.54 478.32,-1012.26 0,0 343.3,136.12 835.61,132.06 766.23,-6.31 1392.07,-637.32 1366.05,-1403.11 -3.12,-93.2 -13.51,-192.24 -32.5,-297.41z"/>
   <polygon class="fil1" points="21291.28,6906.12 21898.72,6224.86 21898.72,6089.4 21291.28,6770.63 "/>
   <polygon class="fil1" points="21291.28,6704.92 21898.72,6023.65 21898.72,5888.19 21291.28,6569.43 "/>
   <polygon class="fil1" points="21291.28,6971.83 21291.28,7110.88 21898.72,6424.03 21898.72,6290.61 "/>
   <path class="fil1" d="M21785.04 5271.12c-78.87,-17.5 -142.39,-35.49 -187.54,-49.65 -94.13,97.26 -185.33,265.73 -266.3,493.03 -14.76,41.43 -28.06,81.78 -39.92,119.88l0 669.32 607.43 -681.26 0 -400.15c410.09,41.5 881.19,-165.01 881.19,-165.01 -435.05,93.63 -790.88,55.18 -994.87,13.84z"/>
   <path class="fil2" d="M16288.73 4160.73l566.63 174.03c-87.02,319.07 -232.04,555.85 -434.41,710.99 -202.38,154.47 -458.71,232.05 -769.68,232.05 -385.18,0 -701.55,-131.54 -949.78,-394.62 -247.57,-263.08 -371.68,-622.61 -371.68,-1079.29 0,-482.31 124.79,-857.36 373.7,-1124.49 248.92,-267.12 576.75,-400.68 982.84,-400.68 354.82,0 642.85,105.23 864.11,315.01 132.21,124.13 230.7,302.21 296.81,534.94l-578.79 137.6c-34.39,-149.74 -105.9,-268.48 -214.51,-355.5 -109.27,-87.02 -241.48,-130.18 -396.63,-130.18 -215.19,0 -389.9,76.9 -523.46,231.37 -134.24,153.8 -201.01,403.39 -201.01,748.77 0,365.6 66.1,626.65 197.63,781.81 132.21,155.83 303.56,233.41 514.69,233.41 155.83,0 290.07,-49.26 402.04,-148.4 111.98,-99.17 192.93,-254.32 241.5,-466.8zm1595.33 1068.51l-554.48 0 0 -2100.58 514.01 0 0 298.15c88.36,-140.97 167.96,-233.39 238.79,-277.24 70.83,-43.85 151.1,-65.43 240.82,-65.43 126.82,0 248.92,35.07 366.28,104.56l-172 484.33c-93.77,-60.71 -180.78,-91.07 -261.07,-91.07 -78.24,0 -144.34,21.59 -198.32,64.09 -53.96,43.17 -96.46,120.06 -127.48,232.05 -31.04,111.98 -46.55,346.72 -46.55,703.56l0 647.58zm915.38 -1075.94c0,-184.82 45.2,-363.57 136.25,-536.27 91.07,-173.36 219.91,-304.91 386.52,-395.96 166.62,-91.08 352.13,-136.93 557.86,-136.93 317.73,0 577.44,103.21 780.48,309.62 203.04,207.09 304.22,467.47 304.22,783.17 0,318.4 -102.53,582.15 -306.92,791.26 -205.06,209.11 -462.75,313.67 -773.72,313.67 -192.25,0 -375.73,-43.84 -550.45,-130.86 -174.03,-87.02 -306.93,-214.51 -397.99,-383.14 -91.06,-167.96 -136.25,-373.03 -136.25,-614.53zm570.67 29.69c0,208.44 49.26,368.31 147.74,478.93 99.15,111.31 220.57,166.62 365.6,166.62 144.35,0 265.78,-55.32 363.58,-166.62 97.81,-110.62 147.05,-271.84 147.05,-482.97 0,-205.75 -49.25,-364.27 -147.05,-474.89 -97.81,-111.31 -219.23,-166.62 -363.58,-166.62 -145.03,0 -266.46,55.32 -365.6,166.62 -98.49,110.62 -147.74,270.49 -147.74,478.93z"/>
   <path class="fil1" d="M13844.14 2358.8c44.15,0 86.36,8.83 124.92,24.81l0.07 0c40.02,16.58 76.02,40.86 106.12,70.96 30.05,30.05 54.32,66.07 70.93,106.17 15.97,38.56 24.8,80.77 24.8,124.91 0,44.07 -8.83,86.22 -24.79,124.72 -16.56,39.91 -40.83,75.87 -70.94,106l-0.43 0.42c-30.12,30.08 -66.06,54.34 -105.94,70.88 -38.51,15.97 -80.65,24.79 -124.74,24.79 -44.14,0 -86.33,-8.82 -124.88,-24.79 -40.1,-16.61 -76.12,-40.89 -106.18,-70.94 -11.13,-11.13 -21.49,-23.1 -30.96,-35.79 -7.47,-10 -14.37,-20.43 -20.65,-31.23l-624.36 0 0 2402.94 -333.08 0 0 -2402.94 -759.89 0 1.64 -333.61 1719.23 0c5.96,-9.78 12.39,-19.19 19.25,-28.19 8.84,-11.59 18.47,-22.62 28.82,-32.99l0.43 -0.42c30.18,-30.1 66.15,-54.36 106.02,-70.91 38.49,-15.97 80.6,-24.8 124.61,-24.8zm-12193.68 2294.5l0 -319.65 1304.86 0 0 0.06c65.45,-0.47 113.87,-16.5 145.32,-48.03 31.44,-31.49 46.88,-79.42 46.42,-143.65l-0.06 -0.07 0 -286.01 0.06 -0.06c0.46,-61.9 -14.9,-107.89 -46.16,-137.92 -31.44,-30.21 -79.94,-45.32 -145.58,-45.32l-853.55 0c-156.14,0 -273.81,-39.98 -352.94,-120 -79.04,-79.94 -118.59,-198.9 -118.59,-356.95l0.06 -0.06 1.48 -210.97 -0.07 0c0,-155.65 39.58,-273.08 118.66,-352.16 79.02,-79.02 196.68,-118.83 352.89,-119.33l0 -0.07 1154.55 0c5.71,-9.09 11.83,-17.86 18.32,-26.25 8.49,-10.99 17.67,-21.42 27.43,-31.21l0.51 -0.49c30.17,-30.07 66.11,-54.3 105.95,-70.83 38.5,-15.98 80.61,-24.8 124.61,-24.8 44.19,0 86.42,8.82 124.98,24.81 40.07,16.63 76.07,40.9 106.12,70.95l0 0.06c30.08,30.09 54.36,66.1 70.94,106.12 15.97,38.56 24.8,80.77 24.8,124.9 0,44.09 -8.83,86.23 -24.8,124.74 -16.54,39.88 -40.8,75.81 -70.87,105.92l-0.42 0.42c-30.14,30.11 -66.09,54.39 -106.01,70.93 -38.5,15.98 -80.66,24.8 -124.74,24.8 -44.14,0 -86.35,-8.82 -124.9,-24.8 -40.09,-16.6 -76.11,-40.87 -106.17,-70.93 -11.1,-11.1 -21.54,-23.21 -31.22,-36.2 -7.53,-10.13 -14.47,-20.67 -20.78,-31.56l-1103.42 0c-61.72,0 -107.52,14.25 -137.36,42.69 -29.65,28.24 -44.48,71.51 -44.48,129.73l0 139.06c0,61.97 14.51,108.01 43.5,138.03 28.8,29.83 72.95,44.77 132.42,44.77l869.81 0c156.32,0 274.05,36.62 353.24,109.83 79.55,73.54 119.29,182.94 119.29,328.18l0 414.69 -0.06 0c-0.51,156.2 -40.33,273.98 -119.52,353.26 -79.18,79.27 -196.82,119.19 -352.95,119.7l0 0.06 -1361.56 0 0 -16.4zm1987.11 -2069.84c-26.32,-26.31 -62.78,-42.62 -102.95,-42.62 -40.4,0 -76.81,16.19 -102.9,42.32l-0.31 0.3c-26.13,26.11 -42.33,62.51 -42.33,102.93 0,40.17 16.32,76.62 42.64,102.93 26.27,26.29 62.74,42.61 102.9,42.61 40.33,0 76.8,-16.22 103.09,-42.46 26.24,-26.3 42.45,-62.75 42.45,-103.08 0,-40.18 -16.31,-76.62 -42.59,-102.93zm1374.48 2078.1l-607.28 -1322.89 0 1331.03 -336.01 0c0.41,-718.86 0.88,-1437.72 1.49,-2156.58l328.67 0 792.6 1741.85 783.91 -1753.18 327.79 0c-0.21,721.65 -0.21,1443.3 0,2164.95l-333.62 0 0 -1326.87 -601.23 1331.31c-117.3,-0.05 -234.6,-0.05 -351.9,0l-4.41 -9.62zm3994.39 -153.87c29.49,6.41 57.44,16.76 83.24,30.45 28.95,15.4 55.29,34.93 78.14,57.78 30.06,30.06 54.33,66.08 70.94,106.18 15.97,38.56 24.8,80.76 24.8,124.89 0,44.09 -8.83,86.24 -24.8,124.74 -16.53,39.86 -40.76,75.77 -70.81,105.86l-0.5 0.51c-30.12,30.11 -66.09,54.38 -105.99,70.93 -38.51,15.98 -80.66,24.8 -124.73,24.8 -44.15,0 -86.34,-8.82 -124.89,-24.79 -40.03,-16.58 -76.03,-40.86 -106.12,-70.94l-0.06 0c-30.1,-30.1 -54.38,-66.1 -70.97,-106.13l0 -0.07c-15.98,-38.56 -24.81,-80.77 -24.81,-124.91 0,-40.89 7.6,-80.11 21.47,-116.29 13.04,-34.02 31.68,-65.41 54.81,-93.03l-192.09 -401.61 -965.11 0 156.48 -321.76 652.28 0 -426.83 -848.1 -1077.57 2206.45 -382.76 0c446.23,-910.76 892.43,-1821.52 1339,-2732.12l249.69 0 967.19 1987.16zm33.22 216.4c-26.32,-26.32 -62.78,-42.63 -102.94,-42.63 -40.4,0 -76.82,16.19 -102.92,42.31l-0.31 0.32c-26.14,26.1 -42.31,62.51 -42.31,102.9 0,40.18 16.29,76.64 42.62,102.95 26.29,26.29 62.74,42.6 102.92,42.6 40.34,0 76.77,-16.21 103.07,-42.46 26.25,-26.28 42.47,-62.75 42.47,-103.09 0,-40.16 -16.31,-76.62 -42.6,-102.9zm903.02 -1064.88l0 -315.22 858.61 0 0.64 0.07c66.07,2.76 114.98,-10.14 146.79,-38.74 31.5,-28.29 47.18,-73.05 47.18,-134.26l0 -144.48c0,-60.07 -14.64,-104.54 -43.88,-133.48 -29.24,-28.96 -74.09,-43.39 -134.47,-43.39l-1002.33 0 0 1817.03 -334.59 0 0 -2153.62 1380.31 0 0.13 0.07c155.14,1.53 272.14,41.97 350.9,121.24 78.77,79.28 118.45,196.55 118.95,351.71l0.07 0 0 214c0,157.55 -39.44,276.28 -118.22,356.22 -78.81,79.97 -196.11,120.17 -351.83,120.68l0 0.06 -420.99 0 1520.63 1575.54 -457.3 0c-520.11,-529.01 -1040.38,-1057.89 -1560.6,-1586.78l0 -6.65zm3798.56 -1076.8l-0.31 0.3c-26.13,26.1 -42.32,62.5 -42.32,102.93 0,40.16 16.32,76.61 42.63,102.92 26.28,26.29 62.74,42.61 102.9,42.61 40.35,0 76.81,-16.22 103.09,-42.46 26.25,-26.29 42.45,-62.76 42.45,-103.07 0,-128.13 -156.99,-194.8 -248.43,-103.23z"/>
  </g>
 </g>
</svg>
